<svg xmlns="http://www.w3.org/2000/svg" version="1.1" xmlns:xlink="http://www.w3.org/1999/xlink" xmlns:svgjs="http://svgjs.dev/svgjs" viewBox="0 0 1422 800"><defs><filter id="uuunion-blur" x="-100%" y="-100%" width="400%" height="400%" color-interpolation-filters="sRGB">
        <feGaussianBlur in="SourceGraphic" stdDeviation="1 0" result="blur"></feGaussianBlur>
        <feDropShadow stdDeviation="0" in="blur" dx="0" dy="0" flood-color="hsl(334, 100%, 28%)" flood-opacity="0.49" x="0%" y="0%" width="100%" height="100%"></feDropShadow>
      </filter><filter id="uuunion-blur2" x="-100%" y="-100%" width="400%" height="400%" color-interpolation-filters="sRGB">
        <feGaussianBlur in="SourceGraphic" stdDeviation="1 0" result="blur"></feGaussianBlur>
        <feDropShadow stdDeviation="0" in="blur" dx="-0" dy="-0" flood-color="hsl(334, 100%, 28%)" flood-opacity="0.49" x="0%" y="0%" width="100%" height="100%"></feDropShadow>
      </filter><linearGradient gradientTransform="rotate(324, 0.5, 0.5)" x1="50%" y1="0%" x2="50%" y2="100%" id="uuunion-grad"><stop stop-color="hsl(0, 0%, 0%)" offset="10%"></stop><stop stop-color="hsl(334, 100%, 28%)" offset="90%"></stop></linearGradient><linearGradient gradientTransform="rotate(334, 0.5, 0.5)" x1="50%" y1="0%" x2="50%" y2="100%" id="uuunion-grad2"><stop stop-color="hsl(0, 0%, 0%)" offset="25%"></stop><stop stop-color="hsl(334, 100%, 28%)" offset="100%"></stop></linearGradient><linearGradient gradientTransform="rotate(333, 0.5, 0.5)" x1="50%" y1="0%" x2="50%" y2="100%" id="uuunion-grad3"><stop stop-color="hsl(0, 0%, 0%)" offset="0%"></stop><stop stop-color="hsl(334, 100%, 28%)" offset="75%"></stop></linearGradient></defs><path d="M-123.79 -85.65Q-111.03 -86.97 -98.27 -87.39 -85.51 -86.87 -72.75 -85.46 -59.98 -83.35 -47.22 -80.81 -34.46 -78.16 -21.7 -75.75 -8.94 -73.89 3.81 -72.81 16.57 -72.65 29.33 -73.43 42.1 -75.06 54.86 -77.32 67.62 -79.93 80.38 -82.54 93.14 -84.83 105.9 -86.49 118.66 -87.32 131.42 -87.21 144.19 -86.18 156.95 -84.35 169.71 -81.96 182.47 -79.32 195.23 -76.76 207.99 -74.62 220.75 -73.17 233.52 -72.6 246.28 -72.98 259.04 -74.25 271.8 -76.27 284.56 -78.76 297.32 -81.41 310.08 -83.88 322.84 -85.85 335.61 -87.07 348.37 -87.38 361.13 -86.74 373.89 -85.24 386.65 -83.06 399.41 -80.48 412.17 -77.85 424.93 -75.49 437.7 -73.71 450.46 -72.74 463.22 -72.69 475.98 -73.59 488.74 -75.31 501.5 -77.63 514.26 -80.25 527.03 -82.84 539.79 -85.07 552.55 -86.64 565.31 -87.36 578.07 -87.14 590.83 -85.99 603.59 -84.08 616.35 -81.64 629.12 -78.99 641.88 -76.47 654.64 -74.4 667.4 -73.05 680.16 -72.6 692.92 -73.09 705.68 -74.47 718.45 -76.56 731.21 -79.09 743.97 -81.73 756.73 -84.16 769.49 -86.05 782.25 -87.16 795.01 -87.35 807.77 -86.6 820.54 -85 833.3 -82.76 846.06 -80.16 858.82 -77.54 871.58 -75.24 884.34 -73.54 897.1 -72.68 909.87 -72.76 922.63 -73.76 935.39 -75.57 948.15 -77.94 960.91 -80.58 973.67 -83.14 986.43 -85.3 999.2 -86.78 1011.96 -87.39 1024.72 -87.04 1037.48 -85.79 1050.24 -83.8 1063 -81.32 1075.76 -78.67 1088.53 -76.19 1101.29 -74.19 1114.05 -72.95 1126.81 -72.6 1139.57 -73.21 1152.33 -74.69 1165.09 -76.85 1177.85 -79.41 1190.62 -82.05 1203.38 -84.42 1216.14 -86.23 1228.9 -87.23 1241.66 -87.31 1254.42 -86.45 1267.18 -84.75 1279.95 -82.45 1292.71 -79.83 1305.47 -77.23 1318.23 -74.99 1330.99 -73.39 1343.75 -72.64 1356.51 -72.83 1369.28 -73.94 1382.04 -75.83 1394.8 -78.26 1407.56 -80.91 1420.32 -83.44 1433.08 -85.52 1445.84 -86.9 1458.61 -87.39 1471.37 -86.94 1484.13 -85.59 1496.89 -83.52 1509.65 -81 1514.4 -66.06 1522.35 -51.13 1532.99 -36.2 1545.63 -21.26 1559.47 -6.33 1573.61 8.6 1587.15 23.53 1599.21 38.46 1609.02 53.4 1615.95 68.33 1619.55 83.27 1619.59 98.2 1616.07 113.13 1609.22 128.07 1599.47 143 1587.45 157.94 1573.94 172.87 1559.8 187.8 1545.95 202.74 1533.26 217.67 1522.57 232.61 1514.55 247.54 1509.72 262.47 1508.4 277.41 1510.66 292.34 1516.36 307.28 1525.14 322.21 1536.43 337.14 1549.51 352.08 1563.53 367.01 1577.59 381.95 1590.79 396.88 1602.28 411.81 1611.32 426.75 1617.33 441.68 1619.93 456.62 1618.94 471.55 1614.44 486.48 1606.7 501.42 1596.23 516.35 1583.7 531.29 1569.92 546.22 1555.77 561.15 1542.16 576.09 1529.97 591.02 1519.98 605.96 1512.83 620.89 1508.98 635.82 1508.68 650.76 1511.95 665.69 1518.58 680.63 1528.15 695.56 1540.03 710.49 1553.46 725.43 1567.58 740.36 1581.49 755.3 1594.28 770.23 1605.14 785.16 1613.37 800.1 1618.44 815.03 1620.02 829.97 1618.01 844.9 1612.54 859.83 1603.96 874.77 1590.21 861.62 1576.47 850.83 1562.72 843.79 1548.97 841.4 1535.23 843.96 1521.48 851.15 1507.73 862.05 1493.99 875.25 1480.24 889.06 1466.49 901.7 1452.75 911.56 1439 917.37 1425.25 918.37 1411.51 914.45 1397.76 906.1 1384.01 894.4 1370.27 880.85 1356.52 867.19 1342.77 855.18 1329.03 846.35 1315.28 841.84 1301.53 842.23 1287.79 847.47 1274.04 856.89 1260.29 869.28 1246.55 883.04 1232.8 896.41 1219.05 907.67 1205.31 915.38 1191.56 918.55 1177.81 916.76 1164.07 910.25 1150.32 899.86 1136.57 886.91 1122.83 873.08 1109.08 860.14 1095.33 849.74 1081.59 843.23 1067.84 841.44 1054.09 844.61 1040.35 852.31 1026.6 863.57 1012.85 876.95 999.11 890.71 985.36 903.09 971.61 912.51 957.87 917.76 944.12 918.15 930.37 913.65 916.63 904.82 902.88 892.8 889.13 879.14 875.39 865.59 861.64 853.89 847.89 845.54 834.15 841.62 820.4 842.62 806.65 848.42 792.91 858.28 779.16 870.93 765.41 884.74 751.67 897.94 737.92 908.84 724.17 916.03 710.43 918.59 696.68 916.2 682.93 909.16 669.19 898.38 655.44 885.23 641.69 871.41 627.95 858.69 614.2 848.71 600.46 842.75 586.71 841.57 572.96 845.32 559.22 853.53 545.47 865.13 531.72 878.65 517.98 892.34 504.23 904.44 490.48 913.4 476.74 918.07 462.99 917.86 449.24 912.78 435.5 903.49 421.75 891.18 408 877.44 394.26 864.03 380.51 852.66 366.76 844.81 353.02 841.47 339.27 843.08 325.52 849.44 311.78 859.71 298.03 872.59 284.28 886.42 270.54 899.43 256.79 909.94 243.04 916.6 229.3 918.57 215.55 915.58 201.8 908.02 188.06 896.86 174.31 883.54 160.57 869.76 146.82 857.29 133.07 847.74 119.33 842.34 105.58 841.77 91.83 846.1 78.09 854.8 64.34 866.72 50.59 880.35 36.85 893.94 23.1 905.73 9.35 914.22 -4.38 918.32 -18.13 917.49 -31.88 911.85 -45.62 902.11 -59.37 889.54 -73.12 875.74 -86.86 862.49 -100.61 851.49 -114.36 844.14 -128.1 841.4 -141.85 843.62 -155.59 850.51 -158.49 835.88 -160.33 821.25 -161.01 806.62 -160.48 792 -158.77 777.37 -155.99 762.74 -152.33 748.11 -148.02 733.49 -143.33 718.86 -138.56 704.23 -134.03 689.6 -130.03 674.98 -126.8 660.35 -124.57 645.72 -123.46 631.09 -123.56 616.47 -124.86 601.84 -127.27 587.21 -130.64 572.58 -134.75 557.95 -139.34 543.33 -144.12 528.7 -148.76 514.07 -152.99 499.44 -156.52 484.82 -159.13 470.19 -160.65 455.56 -160.98 440.93 -160.11 426.31 -158.08 411.68 -155.03 397.05 -151.15 382.42 -146.7 367.8 -141.96 353.17 -137.23 338.54 -132.82 323.91 -129.02 309.29 -126.05 294.66 -124.13 280.03 -123.37 265.4 -123.82 250.78 -125.44 236.15 -128.15 221.52 -131.75 206.89 -136.03 192.27 -140.7 177.64 -145.47 163.01 -150.03 148.38 -154.08 133.76 -157.37 119.13 -159.68 104.5 -160.87 89.87 -160.85 75.25 -159.64 60.62 -157.3 45.99 -153.99 31.36 -149.93 16.73 -145.36 2.11 -140.59 -12.51 -135.92 -27.14 -131.66 -41.77 -128.07 -56.39 -125.39 -71.02 -123.79 -85.65" fill="url(#uuunion-grad)"></path><path d="M-123.8 -85.65Q-125.4 -71.02 -128.08 -56.39 -131.67 -41.76 -135.93 -27.14 -140.6 -12.51 -145.37 2.11 -149.94 16.74 -154 31.36 -157.31 45.99 -159.65 60.62 -160.86 75.25 -160.88 89.87 -159.69 104.5 -157.38 119.13 -154.09 133.76 -150.04 148.39 -145.48 163.01 -140.71 177.64 -136.04 192.27 -131.76 206.9 -128.16 221.52 -125.45 236.15 -123.82 250.78 -123.38 265.41 -124.14 280.03 -126.06 294.66 -129.02 309.29 -132.83 323.92 -137.24 338.55 -141.97 353.17 -144.4 373.6 -133.02 377.56 -123.94 377 -114.87 377.76 -105.8 379.8 -96.73 383 -87.65 387.18 -78.58 392.09 -69.51 397.46 -60.44 402.97 -51.36 408.31 -42.29 413.17 -33.22 417.28 -24.15 420.39 -7 422.81 -3.97 422.96 7.91 418.35 19.78 411.85 31.6 403.76 43.39 394.55 55.14 384.77 66.84 375.01 78.5 365.87 90.11 357.87 101.67 351.44 113.18 346.85 124.63 344.22 136.04 343.49 147.39 344.42 158.69 346.65 169.93 349.67 181.12 352.95 192.26 355.9 203.34 358 214.38 358.77 225.36 357.9 236.3 355.19 247.19 350.63 258.04 344.36 268.84 336.68 279.61 328 290.35 318.84 301.05 309.73 311.72 301.2 322.36 293.72 332.99 287.69 343.59 283.33 354.18 280.74 364.76 279.85 375.33 280.46 385.9 282.2 396.47 284.65 407.05 287.28 417.63 289.6 428.23 291.12 438.85 291.44 449.49 290.25 460.16 287.42 470.85 282.92 481.58 276.9 492.35 269.64 503.15 261.51 514 252.96 524.9 244.49 535.85 236.57 546.85 229.62 557.91 223.96 569.03 219.81 580.2 217.24 591.44 216.19 602.74 216.45 614.11 217.71 625.54 219.56 637.04 221.56 648.61 223.25 660.24 224.2 671.94 224.07 683.71 222.59 695.54 219.65 707.43 215.23 719.39 209.48 731.41 202.64 743.48 195.06 755.62 187.14 767.8 179.31 780.04 171.99 792.33 165.54 804.65 160.26 817.02 156.3 829.42 153.74 841.86 152.51 854.32 152.41 866.8 153.17 879.3 154.42 891.81 155.78 904.33 156.84 916.84 157.24 929.36 156.67 941.86 154.92 954.35 151.88 966.81 147.56 979.25 142.09 991.65 135.7 1004.01 128.67 1016.33 121.38 1028.6 114.19 1040.81 107.46 1052.95 101.51 1065.03 96.57 1077.03 92.8 1088.96 90.23 1100.8 88.79 1112.56 88.32 1124.22 88.57 1135.78 89.23 1147.24 89.94 1158.6 90.39 1169.85 90.24 1180.99 89.25 1192.01 87.23 1202.91 84.12 1213.7 79.92 1224.37 74.74 1234.91 68.79 1245.33 62.33 1255.63 55.67 1265.8 49.12 1275.86 42.97 1285.79 37.51 1295.6 32.91 1305.29 29.3 1314.86 26.7 1324.32 25.05 1333.67 24.2 1342.91 23.93 1352.04 23.97 1361.08 24.05 1370.02 23.88 1378.87 23.19 1387.64 21.79 1396.33 19.53 1404.95 16.36 1413.5 12.29 1422 7.42 1407.5 -10.49 1394.26 -28.41 1383.45 -46.33 1376.01 -64.26 1372.58 -82.18 1373.47 -100.1 1378.59 -118.02 1387.51 -135.95 1375.57 -134.98 1363.63 -134.56 1351.69 -134.74 1339.76 -135.49 1327.82 -136.74 1315.88 -138.35 1303.94 -140.13 1292 -141.9 1280.07 -143.47 1268.13 -144.65 1256.19 -145.32 1244.25 -145.41 1232.31 -144.9 1220.38 -143.85 1208.44 -142.39 1196.5 -140.65 1184.56 -138.85 1172.62 -137.17 1160.69 -135.81 1148.75 -134.9 1136.81 -134.55 1124.87 -134.8 1112.93 -135.61 1101 -136.91 1089.06 -138.55 1077.12 -140.35 1065.18 -142.1 1053.24 -143.63 1041.31 -144.76 1029.37 -145.36 1017.43 -145.38 1005.49 -144.8 993.55 -143.7 981.62 -142.19 969.68 -140.44 957.74 -138.64 945.8 -136.99 933.86 -135.67 921.93 -134.82 909.99 -134.55 898.05 -134.86 886.11 -135.75 874.17 -137.09 862.24 -138.76 850.3 -140.56 838.36 -142.3 826.42 -143.79 814.48 -144.86 802.55 -145.4 790.61 -145.34 778.67 -144.7 766.73 -143.54 754.79 -141.99 742.86 -140.23 730.92 -138.44 718.98 -136.81 707.04 -135.54 695.1 -134.76 683.17 -134.55 671.23 -134.94 659.29 -135.88 647.35 -137.28 635.41 -138.97 623.48 -140.78 611.54 -142.49 599.6 -143.94 587.66 -144.95 575.72 -145.42 563.79 -145.29 551.85 -144.58 539.91 -143.37 527.97 -141.79 516.03 -140.01 504.1 -138.23 492.16 -136.64 480.22 -135.42 468.28 -134.7 456.34 -134.57 444.41 -135.02 432.47 -136.03 420.53 -137.47 408.59 -139.18 396.65 -140.99 384.72 -142.68 372.78 -144.08 360.84 -145.04 348.9 -145.44 336.96 -145.24 325.03 -144.47 313.09 -143.2 301.15 -141.59 289.21 -139.8 277.27 -138.03 265.34 -136.48 253.4 -135.31 241.46 -134.66 229.52 -134.59 217.58 -135.12 205.65 -136.18 193.71 -137.66 181.77 -139.4 169.83 -141.2 157.89 -142.87 145.96 -144.22 134.02 -145.11 122.08 -145.44 110.14 -145.18 98.2 -144.34 86.27 -143.03 74.33 -141.38 62.39 -139.58 50.45 -137.83 38.51 -136.31 26.58 -135.2 14.64 -134.62 2.7 -134.62 -9.23 -135.22 -21.17 -136.33 -33.1 -137.85 -45.04 -139.61 -56.98 -141.41 -68.92 -143.05 -80.86 -144.36 -92.8 -145.18 -104.73 -145.44 -116.67 -145.11 -131.63 -136.35 -129.83 -114.18 -126.2 -99.9 -123.8 -85.65" fill="url(#uuunion-grad2)" filter="url(#uuunion-blur)"></path><path d="M1384.42 335.15Q1393.01 331.47 1401.6 327.13 1410.2 322.37 1418.79 317.49 1427.38 312.74 1435.98 308.41 1444.57 304.75 1453.16 301.96 1470.35 300.18 1487.53 301.85 1496.13 304.58 1504.72 308.2 1513.31 312.5 1521.91 317.23 1534.41 334.66 1549.51 352.08 1565.89 369.5 1582.13 386.92 1596.8 404.35 1608.62 421.77 1616.56 439.19 1619.93 456.62 1618.43 474.04 1612.2 491.46 1601.77 508.89 1588.06 526.31 1572.27 543.73 1555.77 561.15 1540.01 578.58 1526.36 596 1516.01 613.42 1509.87 630.85 1508.48 648.27 1511.95 665.69 1519.99 683.12 1531.88 700.54 1546.6 717.96 1562.86 735.38 1579.23 752.81 1594.28 770.23 1606.72 787.65 1615.43 805.08 1619.67 822.5 1619.07 839.92 1613.68 857.35 1603.96 874.77 1591.35 862.64 1578.74 852.39 1566.13 845.13 1553.52 841.64 1540.91 842.3 1528.3 847.05 1515.69 855.36 1503.09 866.33 1490.48 878.78 1477.87 891.37 1465.26 902.72 1452.65 911.62 1440.04 917.09 1427.43 918.55 1414.82 915.83 1402.21 909.24 1389.6 899.48 1376.99 887.61 1364.38 874.92 1351.78 862.77 1339.17 852.5 1326.56 845.19 1313.95 841.66 1301.34 842.27 1288.73 846.97 1276.12 855.24 1263.51 866.19 1250.9 878.64 1238.29 891.23 1225.68 902.6 1213.07 911.53 1200.47 917.05 1187.86 918.55 1175.25 915.89 1162.64 909.33 1150.03 899.61 1137.42 887.76 1124.81 875.07 1112.2 862.91 1099.59 852.6 1086.98 845.26 1074.37 841.68 1061.76 842.24 1049.16 846.89 1036.55 855.13 1023.94 866.05 1011.33 878.49 998.72 891.08 986.11 902.48 973.5 911.45 960.89 917.01 948.28 918.56 935.67 915.94 923.06 909.43 910.45 899.73 897.85 887.9 885.24 875.21 872.63 863.04 860.02 852.71 847.41 845.32 834.8 841.69 822.19 842.21 809.58 846.81 796.97 855.01 784.36 865.91 771.75 878.34 759.14 890.94 746.54 902.36 733.93 911.36 721.32 916.96 708.71 918.57 696.1 915.99 683.49 909.53 670.88 899.86 658.27 888.05 645.66 875.36 633.05 863.18 620.44 852.81 607.83 845.39 595.23 841.71 582.62 842.18 570.01 846.74 557.4 854.9 544.79 865.77 532.18 878.19 519.57 890.8 506.96 902.24 494.35 911.27 481.74 916.92 469.13 918.57 456.52 916.05 443.92 909.62 431.31 899.99 418.7 888.19 406.09 875.51 393.48 863.31 380.87 852.92 368.26 845.46 355.65 841.73 343.04 842.15 330.43 846.66 317.82 854.78 305.21 865.63 292.6 878.04 280 890.65 267.39 902.12 254.78 911.18 242.17 916.88 229.56 918.58 216.95 916.1 204.34 909.72 191.73 900.12 179.12 888.34 166.51 875.66 153.9 863.45 141.29 853.03 128.69 845.52 116.08 841.75 103.47 842.12 90.86 846.59 78.25 854.67 65.64 865.49 53.03 877.89 40.42 890.51 27.81 901.99 15.2 911.09 -4.38 912.54 -12.44 897.93 -13.19 887.61 -13.58 877.28 -13.61 866.96 -13.29 856.63 -11.84 841.15 -10.55 836 3.15 827.52 16.89 815.27 30.64 799.96 44.38 782.65 58.08 764.61 71.73 747.17 85.31 731.58 98.8 718.88 112.19 709.75 125.47 704.47 138.62 702.9 151.65 704.46 164.56 708.24 177.33 713.07 189.97 717.7 202.49 720.92 214.89 721.66 227.18 719.18 239.38 713.09 251.5 703.42 263.55 690.59 275.55 675.4 287.52 658.86 299.48 642.17 311.43 626.49 323.41 612.87 335.43 602.12 347.5 594.7 359.65 590.7 371.89 589.82 384.23 591.42 396.68 594.58 409.25 598.21 421.95 601.21 434.79 602.54 447.76 601.37 460.87 597.17 474.1 589.74 487.47 579.27 500.95 566.27 514.53 551.55 528.2 536.07 541.95 520.88 555.75 506.99 569.59 495.24 583.44 486.21 597.28 480.18 611.09 477.06 624.85 476.48 638.52 477.74 652.08 479.99 665.52 482.24 678.81 483.54 691.92 483.06 704.84 480.18 717.55 474.56 730.04 466.17 742.3 455.3 754.31 442.5 766.07 428.56 777.59 414.34 788.85 400.75 799.87 388.61 810.66 378.55 820.16 375.92 829.63 374.85 839.08 375.34 848.51 377.25 857.92 380.37 867.31 384.39 876.68 388.94 886.03 393.63 895.36 398.05 904.66 401.81 913.95 404.58 923.22 406.07 932.46 406.11 941.69 404.62 950.89 401.61 960.07 397.21 969.24 391.64 978.38 385.21 987.51 378.27 996.62 371.21 1005.7 364.43 1014.77 358.31 1023.82 353.18 1032.85 349.3 1041.87 346.84 1050.86 345.89 1059.84 346.42 1068.81 348.3 1077.75 351.31 1086.68 355.16 1095.6 359.49 1104.5 363.92 1113.38 368.06 1122.25 371.54 1131.11 374.04 1139.95 375.31 1148.78 375.18 1157.6 373.58 1166.4 370.53 1175.2 366.17 1183.98 360.72 1192.75 354.46 1201.52 347.74 1210.27 340.94 1219.02 334.44 1227.76 328.6 1236.49 323.73 1245.21 320.07 1262.64 317.64 1280.05 319.33 1288.75 322.23 1297.45 325.9 1306.14 330 1314.84 334.17 1323.53 338.03 1332.22 341.23 1349.61 343.86 1367.01 342.53 1375.71 339.46 1384.42 335.15" fill="url(#uuunion-grad3)" filter="url(#uuunion-blur2)"></path></svg>